<?xml version="1.0" standalone="no"?>
<!DOCTYPE svg PUBLIC "-//W3C//DTD SVG 20010904//EN"
 "http://www.w3.org/TR/2001/REC-SVG-20010904/DTD/svg10.dtd">
<svg version="1.0" xmlns="http://www.w3.org/2000/svg"
 width="300.000000pt" height="300.000000pt" viewBox="0 0 300.000000 300.000000"
 preserveAspectRatio="xMidYMid meet">
<metadata>
Created by potrace 1.10, written by Peter Selinger 2001-2011
</metadata>
<g transform="translate(0.000000,300.000000) scale(0.100000,-0.100000)"
fill="#000000" stroke="none">
<path d="M1175 2380 c-8 -16 -27 -37 -40 -46 -31 -20 -32 -32 -2 -43 13 -5 30
-23 37 -40 15 -37 27 -39 39 -7 5 13 22 33 38 44 l28 22 -21 17 c-12 10 -29
33 -38 51 -9 17 -19 32 -21 32 -2 0 -11 -13 -20 -30z m39 -53 c8 -13 6 -21 -7
-34 -15 -16 -18 -16 -33 -1 -13 13 -14 19 -2 37 14 23 26 23 42 -2z"/>
<path d="M2282 2263 c2 -26 8 -38 18 -38 10 0 16 12 18 38 3 32 0 37 -18 37
-18 0 -21 -5 -18 -37z"/>
<path d="M1510 2229 c0 -7 -16 -26 -35 -44 l-34 -33 25 -17 c14 -9 30 -27 36
-41 14 -31 26 -31 38 1 5 13 18 30 30 37 21 13 27 38 10 38 -6 0 -20 16 -31
35 -21 35 -39 46 -39 24z m25 -88 c-12 -12 -17 -12 -30 -1 -14 12 -14 15 1 31
16 18 18 18 30 1 10 -14 10 -20 -1 -31z"/>
<path d="M2207 2204 c-12 -12 4 -24 34 -24 19 0 29 5 29 15 0 15 -50 22 -63 9z"/>
<path d="M2325 2200 c-3 -5 0 -13 9 -16 21 -8 61 -1 61 11 0 14 -62 19 -70 5z"/>
<path d="M2287 2164 c-4 -4 -7 -20 -7 -36 0 -23 4 -29 18 -26 11 2 17 13 17
32 0 29 -14 43 -28 30z"/>
<path d="M320 1955 c0 -29 3 -36 18 -33 11 2 17 13 17 33 0 20 -6 31 -17 33
-15 3 -18 -4 -18 -33z"/>
<path d="M1733 1976 c-72 -17 -157 -57 -194 -92 l-26 -24 -45 19 c-132 59
-460 68 -652 17 -204 -53 -346 -149 -404 -273 -23 -50 -27 -70 -27 -153 0 -71
4 -103 17 -127 16 -29 17 -34 2 -70 -21 -48 -14 -134 14 -189 47 -92 183 -181
332 -217 163 -40 405 -47 565 -17 145 27 282 81 357 140 l36 30 7 -68 c4 -37
11 -74 16 -83 11 -21 128 -81 209 -107 109 -35 181 -44 311 -40 99 3 133 8
171 25 94 43 161 127 171 216 2 15 21 46 43 70 84 87 121 191 111 311 -20 238
-305 517 -624 612 -110 32 -293 42 -390 20z m349 -50 c242 -61 487 -249 581
-445 40 -81 42 -91 42 -176 0 -76 -4 -99 -26 -145 -51 -108 -120 -162 -228
-177 -68 -10 -82 -33 -19 -33 49 0 90 9 84 19 -2 3 7 6 20 6 30 0 30 -7 0 -72
-28 -60 -81 -102 -159 -130 -74 -26 -243 -23 -360 5 -95 24 -224 78 -246 105
-7 9 -17 47 -21 84 -23 198 -159 385 -344 475 -40 19 -46 26 -46 53 0 32 36
92 79 129 13 12 21 31 21 53 0 70 62 160 145 209 112 65 311 82 477 40z m-756
-47 c64 -11 154 -38 154 -46 0 -2 -11 -23 -24 -46 -14 -23 -28 -62 -32 -87 -5
-30 -18 -57 -39 -81 -43 -48 -71 -122 -59 -157 10 -27 89 -75 112 -67 7 3 10
0 7 -5 -3 -6 5 -10 18 -10 25 0 44 -25 27 -35 -5 -3 -21 -3 -36 1 -20 5 -31 2
-41 -11 -7 -11 -13 -14 -13 -8 0 6 -26 5 -72 -5 -51 -11 -134 -16 -273 -16
-179 -1 -208 1 -278 22 -87 25 -142 50 -203 94 -57 41 -78 83 -72 142 4 33 2
46 -7 46 -18 0 -25 -23 -25 -79 0 -42 5 -54 40 -94 107 -121 348 -189 613
-173 116 7 257 30 266 44 3 5 15 8 25 6 11 -1 35 4 55 12 l35 15 56 -56 c31
-31 60 -52 65 -48 4 5 5 3 2 -3 -4 -7 0 -14 8 -18 8 -3 15 -14 15 -25 0 -10
11 -43 25 -73 l25 -53 -37 -34 c-75 -67 -238 -127 -412 -152 -106 -15 -360 -6
-461 16 -256 57 -397 201 -354 362 6 23 6 23 42 -7 37 -30 62 -38 62 -20 0 5
-20 28 -44 51 -58 53 -79 114 -74 212 2 50 10 86 26 117 66 127 232 225 448
264 94 17 346 20 430 5z"/>
<path d="M1545 1780 c5 -14 2 -20 -9 -20 -25 0 -56 -38 -56 -68 0 -28 25 -58
63 -79 30 -16 99 -75 167 -144 61 -60 140 -191 140 -231 1 -39 43 -56 74 -29
18 15 18 15 12 -19 l-6 -35 14 30 c8 17 10 32 5 33 -13 5 -11 32 2 32 5 0 7 4
4 10 -3 6 1 7 10 4 9 -4 14 -11 12 -18 -8 -24 103 -85 215 -116 144 -40 334
-34 366 11 7 10 19 19 25 19 23 0 74 55 90 98 10 24 16 67 16 100 l-2 57 -7
-74 c-10 -88 -40 -133 -116 -171 -45 -23 -59 -25 -184 -25 -121 1 -143 4 -214
28 -84 29 -156 67 -178 94 -7 9 -18 47 -25 86 -31 184 -189 357 -399 437 -23
9 -25 8 -19 -10z m86 -77 c142 -70 253 -213 281 -359 11 -61 5 -134 -12 -134
-5 0 -16 23 -24 50 -46 155 -171 297 -334 379 -49 25 -59 42 -44 77 16 34 45
31 133 -13z"/>
<path d="M1429 1565 c-57 -31 -43 -86 34 -133 123 -74 247 -236 280 -363 8
-31 20 -65 26 -75 10 -16 11 -11 5 26 -23 160 -128 312 -290 417 -40 26 -76
54 -79 62 -9 24 23 61 53 61 42 0 148 -68 212 -137 71 -76 115 -162 138 -271
15 -76 15 -86 1 -127 -19 -52 -7 -59 20 -14 26 43 19 160 -14 242 -52 130
-152 251 -235 284 -19 8 -49 21 -67 29 -38 17 -51 17 -84 -1z"/>
<path d="M2120 1346 c0 -17 28 -41 37 -32 3 3 1 6 -5 6 -7 0 -12 5 -12 11 0 5
6 7 13 3 8 -5 8 -2 -2 9 -16 21 -31 22 -31 3z"/>
<path d="M2130 1015 c19 -7 46 -13 60 -13 15 0 5 5 -25 14 -63 17 -81 17 -35
-1z"/>
<path d="M1905 992 c18 -16 130 -61 190 -77 33 -8 92 -17 130 -19 39 -2 54 -2
35 1 -42 5 -197 42 -219 53 -32 15 -145 50 -136 42z"/>
<path d="M2263 993 c20 -2 54 -2 75 0 20 2 3 4 -38 4 -41 0 -58 -2 -37 -4z"/>
<path d="M1599 1195 c-4 -3 -30 -14 -60 -24 -54 -20 -76 -41 -42 -41 32 0 111
30 125 48 8 9 8 13 1 9 -6 -4 -13 -2 -15 4 -2 5 -6 8 -9 4z"/>
<path d="M939 1117 c4 -4 61 -6 127 -5 l119 3 -127 5 c-70 3 -124 1 -119 -3z"/>
<path d="M710 1090 c127 -47 383 -64 540 -35 l75 14 -100 -5 c-105 -6 -266 -5
-325 1 -32 4 -162 27 -220 40 -14 3 0 -4 30 -15z"/>
<path d="M250 1886 c0 -12 10 -16 36 -16 45 0 42 24 -4 28 -24 2 -32 -1 -32
-12z"/>
<path d="M360 1886 c0 -12 10 -16 36 -16 45 0 42 24 -4 28 -24 2 -32 -1 -32
-12z"/>
<path d="M322 1818 c4 -43 33 -46 33 -3 0 21 -5 31 -18 33 -15 3 -18 -2 -15
-30z"/>
<path d="M1496 746 c-3 -13 -17 -31 -31 -40 -30 -20 -32 -32 -4 -39 11 -3 25
-19 32 -36 13 -35 33 -40 42 -11 3 11 17 28 31 39 29 23 30 32 4 49 -12 7 -25
24 -30 37 -12 32 -36 32 -44 1z m41 -45 c10 -16 9 -22 -7 -36 -17 -16 -19 -15
-30 5 -9 16 -9 25 1 36 15 19 22 18 36 -5z"/>
</g>
</svg>
